<?xml version="1.0" encoding="UTF-8"?><svg id="Calque_2" xmlns="http://www.w3.org/2000/svg" viewBox="0 0 1720.66 2910.82"><g id="Calque_2-2"><path d="M1322.75,633.06s-78.02,414.69-233.32,443.39c0,0,378.8-736.79-234.38-1076.44,0,0,261.57,515.49-101.76,912.8,0,0-112.4,10.46,86.26-551.52-225.34,155.58-310.66,312.81-341.91,439.97-51.97,211.42,21.6,436.97-8.35,443.52-21.21,4.63-64.68-107.12-69.06-118.39-36.36-93.47-34.34-152.27-41.11-152.18-14.8.19-114.18,282.18,30.05,499.42,135.49,204.07,397.33,217.53,447.43,218.88,22.02.59,162.47,3.07,271.38-57.42,229.82-127.65,324-538.35,194.77-1002ZM869.91,1598.95l-117.73-146.51s91.57-138.66,115.11-287.78c0,0,75.87,279.94,107.27,298.25l-104.65,136.04Z"/><path d="M1172.75,1966.52c-.99-1.67-1.54-3.56-1.61-5.49-1.37-34.13-10.03-357.43,151.5-359.24,170.12-1.91,321.18-306.07,293.37-677.54-.19-2.52.38-5.07,1.79-7.17,5.73-8.49,25-11.5,72.74,177.89,59.34,235.43,67.1,711.48-324.5,642.12-.76-.14-1.52-.34-2.24-.63-9.78-3.83-88.82-31.45-113.97,65.55-26.44,101.97-43.57,220.7-77.08,164.5Z"/><path d="M547.91,1966.52c.99-1.67,1.54-3.56,1.61-5.49,1.37-34.13,10.03-357.43-151.5-359.24-170.12-1.91-321.18-306.07-293.37-677.54.19-2.52-.38-5.07-1.79-7.17-5.73-8.49-25-11.5-72.74,177.89-59.34,235.43-67.1,711.48,324.5,642.12.76-.14,1.52-.34,2.24-.63,9.78-3.83,88.82-31.45,113.97,65.55,26.44,101.97,43.57,220.7,77.08,164.5Z"/><circle cx="863.09" cy="2130.36" r="148.84"/><path d="M992.87,2325.12c-44.86,58.45-89.71,116.89-134.57,175.34-41.67-58.42-83.34-116.84-125.01-175.26,0,0,111.38,511.36,124.38,585.62,0,0,125.59-548.8,135.2-585.7Z"/><path d="M653.95,2077.08c55.36-98.33,120.88-160.15,163.58-174.82,30.24-10.39,58.27-10.22,58.27-10.22s27.92.17,56.23,10.22c43.79,15.55,99.98,84.55,130.68,187.62,3.78.52,11.79,1.05,20.06-3.1,3.67-1.84,7.51-4.66,11.45-9.58,0,0,12.44-15.55,13.99-38.75,13.87-208.54-126.38-278.02-126.38-278.02-95.13-47.13-190.77-6.67-203.57-1.01-102.53,45.33-167.6,160.35-164.55,290.89-.18,2.46-.2,6.18.78,10.52.92,4.06,3.51,15.51,13.24,20.28,7.94,3.89,18.17,2.13,26.22-4.03Z"/></g></svg>